<svg xmlns="http://www.w3.org/2000/svg" xmlns:xlink="http://www.w3.org/1999/xlink" xmlns:lucid="lucid" width="1520" height="525"><g transform="translate(0 20)" lucid:page-tab-id="0_0"><path d="M148 300c17.67 0 32 17.9 32 40s-14.33 40-32 40H52c-17.67 0-32-17.9-32-40s14.33-40 32-40z" stroke="#000" stroke-opacity="0" stroke-width="2" fill="#007bff"/><use xlink:href="#a" transform="matrix(1,0,0,1,25,305) translate(27.725 38.6)"/><use xlink:href="#b" transform="matrix(1,0,0,1,25,305) translate(69.32499999999999 38.6)"/><path d="M300 280l80 60-80 60-80-60z" stroke="#000" stroke-opacity="0" stroke-width="2" fill="#fce1e0"/><use xlink:href="#c" transform="matrix(1,0,0,1,225,285) translate(12.024999999999999 47.8)"/><use xlink:href="#d" transform="matrix(1,0,0,1,225,285) translate(39.975 47.8)"/><use xlink:href="#e" transform="matrix(1,0,0,1,225,285) translate(73.975 47.8)"/><use xlink:href="#f" transform="matrix(1,0,0,1,225,285) translate(117.975 47.8)"/><use xlink:href="#g" transform="matrix(1,0,0,1,225,285) translate(38.5 69.4)"/><path d="M180 340h21.76" stroke="#000" stroke-width="2" fill="none"/><path d="M180 341h-.06l.06-1-.04-1h.04zM216.76 340l-14.26 4.64v-9.28z"/><path d="M220 340l-18.5 6v-12zm-16.5 3.26l10.03-3.26-10.03-3.26z"/><path d="M440 180h160v60H440z" stroke="#fce1e0" stroke-width="3" fill="#fff"/><use xlink:href="#h" transform="matrix(1,0,0,1,445,185) translate(53.025 28.6)"/><path d="M440 425h160v60H440z" stroke="#fce1e0" stroke-width="3" fill="#fff"/><use xlink:href="#i" transform="matrix(1,0,0,1,445,430) translate(44.525 28.6)"/><use xlink:href="#j" transform="matrix(1,0,0,1,445,430) translate(85.475 28.6)"/><path d="M411 341h-31v-2h29v-52.45h2zm9.26-130H411v53.95h-2V209h11.26zM380 341h-1.33l1.33-1-1.33-1H380zM435.26 210L421 214.64v-9.28z"/><path d="M438.5 210l-18.5 6v-12zm-16.5 3.26l10.03-3.26-10.03-3.26z"/><use xlink:href="#k" transform="matrix(1,0,0,1,395.325,264.95) translate(0 14.4)"/><path d="M410.25 454h10v2h-12v-47.7h2zm0-67.3h-2V341H380v-2h30.25zM380 341h-1.33l1.33-1-1.33-1H380zM435.26 455L421 459.64v-9.28z"/><path d="M438.5 455l-18.5 6v-12zm-16.5 3.26l10.03-3.26-10.03-3.26z"/><use xlink:href="#l" transform="matrix(1,0,0,1,397.775,386.7) translate(0 14.4)"/><path d="M720 150l80 60-80 60-80-60z" stroke="#000" stroke-opacity="0" stroke-width="2" fill="#fce1e0"/><use xlink:href="#m" transform="matrix(1,0,0,1,645,155) translate(15.099999999999994 47.8)"/><use xlink:href="#n" transform="matrix(1,0,0,1,645,155) translate(48.05 47.8)"/><use xlink:href="#o" transform="matrix(1,0,0,1,645,155) translate(51.55 69.4)"/><path d="M830.25 211H800v-2h28.25v-48.2h2zm10-120h-10v48.2h-2V89h12zM800 211h-1.33l1.33-1-1.33-1H800zM855.26 90L841 94.64v-9.28z"/><path d="M858.5 90L840 96V84zM842 93.26L852.03 90 842 86.74z"/><use xlink:href="#p" transform="matrix(1,0,0,1,814.575,139.2) translate(0 14.4)"/><path d="M860 60h160v60H860z" stroke="#fce1e0" stroke-width="3" fill="#fff"/><use xlink:href="#q" transform="matrix(1,0,0,1,865,65) translate(45.05 28.6)"/><path d="M521 309h308v-34.17h2V311H519v-51.26h2zm310-55.77h-2V211h-29v-2h31zM800 211h-1.33l1.33-1-1.33-1H800zM524.64 259h-9.28l4.64-14.26z"/><path d="M526 260h-12l6-18.5zm-9.26-2h6.52L520 247.97z"/><use xlink:href="#r" transform="matrix(1,0,0,1,818.525,253.22838221381267) translate(0 14.4)"/><path d="M601.5 210h20.26" stroke="#000" stroke-width="2" fill="none"/><path d="M601.5 211H600v-2h1.5zM636.76 210l-14.26 4.64v-9.28z"/><path d="M640 210l-18.5 6v-12zm-16.5 3.26l10.03-3.26-10.03-3.26z"/><path d="M1060 16.6L1220 0v100h-160z" stroke="#fce1e0" stroke-width="3" fill="#fff"/><use xlink:href="#s" transform="matrix(1,0,0,1,1065,21.666666666666664) translate(13.125 40.6)"/><use xlink:href="#t" transform="matrix(1,0,0,1,1065,21.666666666666664) translate(57.075 40.6)"/><use xlink:href="#u" transform="matrix(1,0,0,1,1065,21.666666666666664) translate(91.925 40.6)"/><path d="M1060 116.6l160-16.6v100h-160z" stroke="#fce1e0" stroke-width="3" fill="#fff"/><use xlink:href="#v" transform="matrix(1,0,0,1,1065,121.66666666666666) translate(36.6 40.6)"/><use xlink:href="#w" transform="matrix(1,0,0,1,1065,121.66666666666666) translate(74.55000000000001 40.6)"/><path d="M1060 216.6l160-16.6v100h-160z" stroke="#fce1e0" stroke-width="3" fill="#fff"/><use xlink:href="#x" transform="matrix(1,0,0,1,1065,221.66666666666666) translate(33.175 40.6)"/><use xlink:href="#w" transform="matrix(1,0,0,1,1065,221.66666666666666) translate(77.975 40.6)"/><path d="M1060 321.6l160-16.6v100h-160z" stroke="#fce1e0" stroke-width="3" fill="#fff"/><use xlink:href="#y" transform="matrix(1,0,0,1,1065,326.6666666666667) translate(23.099999999999994 40.6)"/><use xlink:href="#z" transform="matrix(1,0,0,1,1065,326.6666666666667) translate(78.05 40.6)"/><path d="M1021.5 90h18.5V50h.26" stroke="#000" stroke-width="2" fill="none"/><path d="M1021.5 91h-1.5v-2h1.5zM1055.26 50L1041 54.64v-9.28z"/><path d="M1058.5 50l-18.5 6V44zm-16.5 3.26l10.03-3.26-10.03-3.26z"/><path d="M1021.5 90h18.5v60h.26" stroke="#000" stroke-width="2" fill="none"/><path d="M1021.5 91h-1.5v-2h1.5zM1055.26 150l-14.26 4.64v-9.28z"/><path d="M1058.5 150l-18.5 6v-12zm-16.5 3.26l10.03-3.26-10.03-3.26z"/><path d="M1021.5 90h18.5v160h.26" stroke="#000" stroke-width="2" fill="none"/><path d="M1021.5 91h-1.5v-2h1.5zM1055.26 250l-14.26 4.64v-9.28z"/><path d="M1058.5 250l-18.5 6v-12zm-16.5 3.26l10.03-3.26-10.03-3.26z"/><path d="M1021.5 90h18.5v252.67h.26" stroke="#000" stroke-width="2" fill="none"/><path d="M1021.5 91h-1.5v-2h1.5zM1055.26 342.67L1041 347.3v-9.27z"/><path d="M1058.5 342.67l-18.5 6v-12.02zm-16.5 3.26l10.03-3.26-10.03-3.26z"/><path d="M1340 321.6l160-16.6v100h-160z" stroke="#fce1e0" stroke-width="3" fill="#fff"/><use xlink:href="#A" transform="matrix(1,0,0,1,1345,326.6666666666667) translate(28.049999999999997 40.6)"/><use xlink:href="#B" transform="matrix(1,0,0,1,1345,326.6666666666667) translate(87 40.6)"/><path d="M1221.5 355h98.76" stroke="#000" stroke-width="2" fill="none"/><path d="M1221.5 356h-1.5v-2h1.5zM1335.26 355l-14.26 4.64v-9.28z"/><path d="M1338.5 355l-18.5 6v-12zm-16.5 3.26l10.03-3.26-10.03-3.26z"/><path d="M1221.5 50h40v306h-21.76" stroke="#000" stroke-width="2" fill="none"/><path d="M1221.5 51h-1.5v-2h1.5zM1239 360.64l-14.26-4.64 14.26-4.64z"/><path d="M1240 362l-18.5-6 18.5-6zm-12.03-6l10.03 3.26v-6.52z"/><path d="M1221.5 150h40v198h-21.76" stroke="#000" stroke-width="2" fill="none"/><path d="M1221.5 151h-1.5v-2h1.5zM1239 352.64l-14.26-4.64 14.26-4.64z"/><path d="M1240 354l-18.5-6 18.5-6zm-12.03-6l10.03 3.26v-6.52z"/><path d="M1221.5 250h40v106h-21.76" stroke="#000" stroke-width="2" fill="none"/><path d="M1221.5 251h-1.5v-2h1.5zM1239 360.64l-14.26-4.64 14.26-4.64z"/><path d="M1240 362l-18.5-6 18.5-6zm-12.03-6l10.03 3.26v-6.52z"/><defs><path fill="#fff" d="M266 0h-40l-56-210L115 0H75L2-248h35L96-30l15-64 43-154h32l59 218 59-218h35" id="C"/><path fill="#fff" d="M100-194c63 0 86 42 84 106H49c0 40 14 67 53 68 26 1 43-12 49-29l28 8c-11 28-37 45-77 45C44 4 14-33 15-96c1-61 26-98 85-98zm52 81c6-60-76-77-97-28-3 7-6 17-6 28h103" id="D"/><path fill="#fff" d="M115-194c53 0 69 39 70 98 0 66-23 100-70 100C84 3 66-7 56-30L54 0H23l1-261h32v101c10-23 28-34 59-34zm-8 174c40 0 45-34 45-75 0-40-5-75-45-74-42 0-51 32-51 76 0 43 10 73 51 73" id="E"/><g id="a"><use transform="matrix(0.05,0,0,0.05,0,0)" xlink:href="#C"/><use transform="matrix(0.05,0,0,0.05,16.599999999999998,0)" xlink:href="#D"/><use transform="matrix(0.05,0,0,0.05,26.599999999999994,0)" xlink:href="#E"/></g><path fill="#fff" d="M24 0v-261h32V0H24" id="F"/><path fill="#fff" d="M141-36C126-15 110 5 73 4 37 3 15-17 15-53c-1-64 63-63 125-63 3-35-9-54-41-54-24 1-41 7-42 31l-33-3c5-37 33-52 76-52 45 0 72 20 72 64v82c-1 20 7 32 28 27v20c-31 9-61-2-59-35zM48-53c0 20 12 33 32 33 41-3 63-29 60-74-43 2-92-5-92 41" id="G"/><path fill="#fff" d="M84 4C-5 8 30-112 23-190h32v120c0 31 7 50 39 49 72-2 45-101 50-169h31l1 190h-30c-1-10 1-25-2-33-11 22-28 36-60 37" id="H"/><path fill="#fff" d="M117-194c89-4 53 116 60 194h-32v-121c0-31-8-49-39-48C34-167 62-67 57 0H25l-1-190h30c1 10-1 24 2 32 11-22 29-35 61-36" id="I"/><path fill="#fff" d="M96-169c-40 0-48 33-48 73s9 75 48 75c24 0 41-14 43-38l32 2c-6 37-31 61-74 61-59 0-76-41-82-99-10-93 101-131 147-64 4 7 5 14 7 22l-32 3c-4-21-16-35-41-35" id="J"/><path fill="#fff" d="M106-169C34-169 62-67 57 0H25v-261h32l-1 103c12-21 28-36 61-36 89 0 53 116 60 194h-32v-121c2-32-8-49-39-48" id="K"/><g id="b"><use transform="matrix(0.05,0,0,0.05,0,0)" xlink:href="#F"/><use transform="matrix(0.05,0,0,0.05,3.95,0)" xlink:href="#G"/><use transform="matrix(0.05,0,0,0.05,13.949999999999998,0)" xlink:href="#H"/><use transform="matrix(0.05,0,0,0.05,23.95,0)" xlink:href="#I"/><use transform="matrix(0.05,0,0,0.05,33.95,0)" xlink:href="#J"/><use transform="matrix(0.05,0,0,0.05,42.95,0)" xlink:href="#K"/></g><path d="M30-248c118-7 216 8 213 122C240-48 200 0 122 0H30v-248zM63-27c89 8 146-16 146-99s-60-101-146-95v194" id="L"/><path d="M100-194c62-1 85 37 85 99 1 63-27 99-86 99S16-35 15-95c0-66 28-99 85-99zM99-20c44 1 53-31 53-75 0-43-8-75-51-75s-53 32-53 75 10 74 51 75" id="M"/><g id="c"><use transform="matrix(0.05,0,0,0.05,0,0)" xlink:href="#L"/><use transform="matrix(0.05,0,0,0.05,12.950000000000001,0)" xlink:href="#M"/></g><path d="M179-190L93 31C79 59 56 82 12 73V49c39 6 53-20 64-50L1-190h34L92-34l54-156h33" id="N"/><path d="M84 4C-5 8 30-112 23-190h32v120c0 31 7 50 39 49 72-2 45-101 50-169h31l1 190h-30c-1-10 1-25-2-33-11 22-28 36-60 37" id="O"/><g id="d"><use transform="matrix(0.05,0,0,0.05,0,0)" xlink:href="#N"/><use transform="matrix(0.05,0,0,0.05,9,0)" xlink:href="#M"/><use transform="matrix(0.05,0,0,0.05,19,0)" xlink:href="#O"/></g><path d="M106-169C34-169 62-67 57 0H25v-261h32l-1 103c12-21 28-36 61-36 89 0 53 116 60 194h-32v-121c2-32-8-49-39-48" id="P"/><path d="M141-36C126-15 110 5 73 4 37 3 15-17 15-53c-1-64 63-63 125-63 3-35-9-54-41-54-24 1-41 7-42 31l-33-3c5-37 33-52 76-52 45 0 72 20 72 64v82c-1 20 7 32 28 27v20c-31 9-61-2-59-35zM48-53c0 20 12 33 32 33 41-3 63-29 60-74-43 2-92-5-92 41" id="Q"/><path d="M108 0H70L1-190h34L89-25l56-165h34" id="R"/><path d="M100-194c63 0 86 42 84 106H49c0 40 14 67 53 68 26 1 43-12 49-29l28 8c-11 28-37 45-77 45C44 4 14-33 15-96c1-61 26-98 85-98zm52 81c6-60-76-77-97-28-3 7-6 17-6 28h103" id="S"/><g id="e"><use transform="matrix(0.05,0,0,0.05,0,0)" xlink:href="#P"/><use transform="matrix(0.05,0,0,0.05,10,0)" xlink:href="#Q"/><use transform="matrix(0.05,0,0,0.05,20,0)" xlink:href="#R"/><use transform="matrix(0.05,0,0,0.05,29,0)" xlink:href="#S"/></g><path d="M117-194c89-4 53 116 60 194h-32v-121c0-31-8-49-39-48C34-167 62-67 57 0H25l-1-190h30c1 10-1 24 2 32 11-22 29-35 61-36" id="T"/><g id="f"><use transform="matrix(0.05,0,0,0.05,0,0)" xlink:href="#Q"/><use transform="matrix(0.05,0,0,0.05,10,0)" xlink:href="#T"/></g><path d="M96-169c-40 0-48 33-48 73s9 75 48 75c24 0 41-14 43-38l32 2c-6 37-31 61-74 61-59 0-76-41-82-99-10-93 101-131 147-64 4 7 5 14 7 22l-32 3c-4-21-16-35-41-35" id="U"/><path d="M59-47c-2 24 18 29 38 22v24C64 9 27 4 27-40v-127H5v-23h24l9-43h21v43h35v23H59v120" id="V"/><path d="M103-251c84 0 111 97 45 133-19 10-37 24-39 52H78c0-63 77-55 77-114 0-30-21-42-52-43-32 0-53 17-56 46l-32-2c7-45 34-72 88-72zM77 0v-35h34V0H77" id="W"/><g id="g"><use transform="matrix(0.05,0,0,0.05,0,0)" xlink:href="#Q"/><use transform="matrix(0.05,0,0,0.05,10,0)" xlink:href="#U"/><use transform="matrix(0.05,0,0,0.05,19,0)" xlink:href="#U"/><use transform="matrix(0.05,0,0,0.05,28,0)" xlink:href="#M"/><use transform="matrix(0.05,0,0,0.05,38,0)" xlink:href="#O"/><use transform="matrix(0.05,0,0,0.05,48,0)" xlink:href="#T"/><use transform="matrix(0.05,0,0,0.05,58,0)" xlink:href="#V"/><use transform="matrix(0.05,0,0,0.05,63,0)" xlink:href="#W"/></g><path d="M30 0v-248h33v221h125V0H30" id="X"/><path d="M177-190C167-65 218 103 67 71c-23-6-38-20-44-43l32-5c15 47 100 32 89-28v-30C133-14 115 1 83 1 29 1 15-40 15-95c0-56 16-97 71-98 29-1 48 16 59 35 1-10 0-23 2-32h30zM94-22c36 0 50-32 50-73 0-42-14-75-50-75-39 0-46 34-46 75s6 73 46 73" id="Y"/><path d="M24-231v-30h32v30H24zM24 0v-190h32V0H24" id="Z"/><g id="h"><use transform="matrix(0.05,0,0,0.05,0,0)" xlink:href="#X"/><use transform="matrix(0.05,0,0,0.05,10,0)" xlink:href="#M"/><use transform="matrix(0.05,0,0,0.05,20,0)" xlink:href="#Y"/><use transform="matrix(0.05,0,0,0.05,30,0)" xlink:href="#Z"/><use transform="matrix(0.05,0,0,0.05,33.95,0)" xlink:href="#T"/></g><path d="M185-189c-5-48-123-54-124 2 14 75 158 14 163 119 3 78-121 87-175 55-17-10-28-26-33-46l33-7c5 56 141 63 141-1 0-78-155-14-162-118-5-82 145-84 179-34 5 7 8 16 11 25" id="aa"/><g id="i"><use transform="matrix(0.05,0,0,0.05,0,0)" xlink:href="#aa"/><use transform="matrix(0.05,0,0,0.05,12,0)" xlink:href="#Z"/><use transform="matrix(0.05,0,0,0.05,15.949999999999998,0)" xlink:href="#Y"/><use transform="matrix(0.05,0,0,0.05,25.950000000000003,0)" xlink:href="#T"/></g><path d="M115-194c55 1 70 41 70 98S169 2 115 4C84 4 66-9 55-30l1 105H24l-1-265h31l2 30c10-21 28-34 59-34zm-8 174c40 0 45-34 45-75s-6-73-45-74c-42 0-51 32-51 76 0 43 10 73 51 73" id="ab"/><g id="j"><use transform="matrix(0.05,0,0,0.05,0,0)" xlink:href="#O"/><use transform="matrix(0.05,0,0,0.05,10,0)" xlink:href="#ab"/></g><path d="M137-103V0h-34v-103L8-248h37l75 118 75-118h37" id="ac"/><path d="M135-143c-3-34-86-38-87 0 15 53 115 12 119 90S17 21 10-45l28-5c4 36 97 45 98 0-10-56-113-15-118-90-4-57 82-63 122-42 12 7 21 19 24 35" id="ad"/><g id="k"><use transform="matrix(0.05,0,0,0.05,0,0)" xlink:href="#ac"/><use transform="matrix(0.05,0,0,0.05,10.35,0)" xlink:href="#S"/><use transform="matrix(0.05,0,0,0.05,20.35,0)" xlink:href="#ad"/></g><path d="M190 0L58-211 59 0H30v-248h39L202-35l-2-213h31V0h-41" id="ae"/><g id="l"><use transform="matrix(0.05,0,0,0.05,0,0)" xlink:href="#ae"/><use transform="matrix(0.05,0,0,0.05,12.950000000000001,0)" xlink:href="#M"/></g><path d="M205 0l-28-72H64L36 0H1l101-248h38L239 0h-34zm-38-99l-47-123c-12 45-31 82-46 123h93" id="af"/><path d="M114-163C36-179 61-72 57 0H25l-1-190h30c1 12-1 29 2 39 6-27 23-49 58-41v29" id="ag"/><g id="m"><use transform="matrix(0.05,0,0,0.05,0,0)" xlink:href="#af"/><use transform="matrix(0.05,0,0,0.05,12,0)" xlink:href="#ag"/><use transform="matrix(0.05,0,0,0.05,17.95,0)" xlink:href="#S"/></g><path d="M85-194c31 0 48 13 60 33l-1-100h32l1 261h-30c-2-10 0-23-3-31C134-8 116 4 85 4 32 4 16-35 15-94c0-66 23-100 70-100zm9 24c-40 0-46 34-46 75 0 40 6 74 45 74 42 0 51-32 51-76 0-42-9-74-50-73" id="ah"/><path d="M24 0v-261h32V0H24" id="ai"/><g id="n"><use transform="matrix(0.05,0,0,0.05,0,0)" xlink:href="#U"/><use transform="matrix(0.05,0,0,0.05,9,0)" xlink:href="#ag"/><use transform="matrix(0.05,0,0,0.05,14.949999999999998,0)" xlink:href="#S"/><use transform="matrix(0.05,0,0,0.05,24.95,0)" xlink:href="#ah"/><use transform="matrix(0.05,0,0,0.05,34.95,0)" xlink:href="#S"/><use transform="matrix(0.05,0,0,0.05,44.95,0)" xlink:href="#T"/><use transform="matrix(0.05,0,0,0.05,54.95,0)" xlink:href="#V"/><use transform="matrix(0.05,0,0,0.05,59.95,0)" xlink:href="#Z"/><use transform="matrix(0.05,0,0,0.05,63.900000000000006,0)" xlink:href="#Q"/><use transform="matrix(0.05,0,0,0.05,73.9,0)" xlink:href="#ai"/><use transform="matrix(0.05,0,0,0.05,77.85000000000001,0)" xlink:href="#ad"/></g><g id="o"><use transform="matrix(0.05,0,0,0.05,0,0)" xlink:href="#R"/><use transform="matrix(0.05,0,0,0.05,9,0)" xlink:href="#Q"/><use transform="matrix(0.05,0,0,0.05,19,0)" xlink:href="#ai"/><use transform="matrix(0.05,0,0,0.05,22.95,0)" xlink:href="#Z"/><use transform="matrix(0.05,0,0,0.05,26.899999999999995,0)" xlink:href="#ah"/><use transform="matrix(0.05,0,0,0.05,36.9,0)" xlink:href="#W"/></g><g id="p"><use transform="matrix(0.05,0,0,0.05,0,0)" xlink:href="#ac"/><use transform="matrix(0.05,0,0,0.05,10.35,0)" xlink:href="#S"/><use transform="matrix(0.05,0,0,0.05,20.35,0)" xlink:href="#ad"/></g><path d="M160-131c35 5 61 23 61 61C221 17 115-2 30 0v-248c76 3 177-17 177 60 0 33-19 50-47 57zm-97-11c50-1 110 9 110-42 0-47-63-36-110-37v79zm0 115c55-2 124 14 124-45 0-56-70-42-124-44v89" id="aj"/><path d="M206 0h-36l-40-164L89 0H53L-1-190h32L70-26l43-164h34l41 164 42-164h31" id="ak"/><g id="q"><use transform="matrix(0.05,0,0,0.05,0,0)" xlink:href="#aj"/><use transform="matrix(0.05,0,0,0.05,12,0)" xlink:href="#ag"/><use transform="matrix(0.05,0,0,0.05,17.95,0)" xlink:href="#M"/><use transform="matrix(0.05,0,0,0.05,27.950000000000003,0)" xlink:href="#ak"/><use transform="matrix(0.05,0,0,0.05,40.9,0)" xlink:href="#ad"/><use transform="matrix(0.05,0,0,0.05,49.9,0)" xlink:href="#S"/></g><g id="r"><use transform="matrix(0.05,0,0,0.05,0,0)" xlink:href="#ae"/><use transform="matrix(0.05,0,0,0.05,12.950000000000001,0)" xlink:href="#M"/></g><path d="M127-220V0H93v-220H8v-28h204v28h-85" id="al"/><g id="s"><use transform="matrix(0.05,0,0,0.05,0,0)" xlink:href="#al"/><use transform="matrix(0.05,0,0,0.05,9.950000000000001,0)" xlink:href="#N"/><use transform="matrix(0.05,0,0,0.05,18.950000000000003,0)" xlink:href="#ab"/><use transform="matrix(0.05,0,0,0.05,28.950000000000003,0)" xlink:href="#S"/></g><path d="M143 0L79-87 56-68V0H24v-261h32v163l83-92h37l-77 82L181 0h-38" id="am"/><g id="t"><use transform="matrix(0.05,0,0,0.05,0,0)" xlink:href="#ad"/><use transform="matrix(0.05,0,0,0.05,9,0)" xlink:href="#am"/><use transform="matrix(0.05,0,0,0.05,18,0)" xlink:href="#Z"/><use transform="matrix(0.05,0,0,0.05,21.95,0)" xlink:href="#ai"/><use transform="matrix(0.05,0,0,0.05,25.899999999999995,0)" xlink:href="#ai"/></g><path d="M210-169c-67 3-38 105-44 169h-31v-121c0-29-5-50-35-48C34-165 62-65 56 0H25l-1-190h30c1 10-1 24 2 32 10-44 99-50 107 0 11-21 27-35 58-36 85-2 47 119 55 194h-31v-121c0-29-5-49-35-48" id="an"/><g id="u"><use transform="matrix(0.05,0,0,0.05,0,0)" xlink:href="#T"/><use transform="matrix(0.05,0,0,0.05,10,0)" xlink:href="#Q"/><use transform="matrix(0.05,0,0,0.05,20,0)" xlink:href="#an"/><use transform="matrix(0.05,0,0,0.05,34.95,0)" xlink:href="#S"/></g><g id="v"><use transform="matrix(0.05,0,0,0.05,0,0)" xlink:href="#aa"/><use transform="matrix(0.05,0,0,0.05,12,0)" xlink:href="#M"/><use transform="matrix(0.05,0,0,0.05,22,0)" xlink:href="#ag"/><use transform="matrix(0.05,0,0,0.05,27.950000000000003,0)" xlink:href="#V"/></g><g id="w"><use transform="matrix(0.05,0,0,0.05,0,0)" xlink:href="#ad"/><use transform="matrix(0.05,0,0,0.05,9,0)" xlink:href="#am"/><use transform="matrix(0.05,0,0,0.05,18,0)" xlink:href="#Z"/><use transform="matrix(0.05,0,0,0.05,21.95,0)" xlink:href="#ai"/><use transform="matrix(0.05,0,0,0.05,25.899999999999995,0)" xlink:href="#ai"/><use transform="matrix(0.05,0,0,0.05,29.849999999999994,0)" xlink:href="#ad"/></g><path d="M63-220v92h138v28H63V0H30v-248h175v28H63" id="ao"/><g id="x"><use transform="matrix(0.05,0,0,0.05,0,0)" xlink:href="#ao"/><use transform="matrix(0.05,0,0,0.05,10.950000000000001,0)" xlink:href="#Z"/><use transform="matrix(0.05,0,0,0.05,14.9,0)" xlink:href="#ai"/><use transform="matrix(0.05,0,0,0.05,18.85,0)" xlink:href="#V"/><use transform="matrix(0.05,0,0,0.05,23.85,0)" xlink:href="#S"/><use transform="matrix(0.05,0,0,0.05,33.85,0)" xlink:href="#ag"/></g><g id="y"><use transform="matrix(0.05,0,0,0.05,0,0)" xlink:href="#aa"/><use transform="matrix(0.05,0,0,0.05,12,0)" xlink:href="#S"/><use transform="matrix(0.05,0,0,0.05,22,0)" xlink:href="#ai"/><use transform="matrix(0.05,0,0,0.05,25.950000000000003,0)" xlink:href="#S"/><use transform="matrix(0.05,0,0,0.05,35.95,0)" xlink:href="#U"/><use transform="matrix(0.05,0,0,0.05,44.95,0)" xlink:href="#V"/></g><path d="M101-234c-31-9-42 10-38 44h38v23H63V0H32v-167H5v-23h27c-7-52 17-82 69-68v24" id="ap"/><g id="z"><use transform="matrix(0.05,0,0,0.05,0,0)" xlink:href="#ab"/><use transform="matrix(0.05,0,0,0.05,10,0)" xlink:href="#ag"/><use transform="matrix(0.05,0,0,0.05,15.949999999999998,0)" xlink:href="#M"/><use transform="matrix(0.05,0,0,0.05,25.950000000000003,0)" xlink:href="#ap"/><use transform="matrix(0.05,0,0,0.05,30.950000000000003,0)" xlink:href="#Z"/><use transform="matrix(0.05,0,0,0.05,34.9,0)" xlink:href="#ai"/><use transform="matrix(0.05,0,0,0.05,38.85,0)" xlink:href="#S"/></g><g id="A"><use transform="matrix(0.05,0,0,0.05,0,0)" xlink:href="#af"/><use transform="matrix(0.05,0,0,0.05,12,0)" xlink:href="#ad"/><use transform="matrix(0.05,0,0,0.05,21,0)" xlink:href="#ad"/><use transform="matrix(0.05,0,0,0.05,30,0)" xlink:href="#Z"/><use transform="matrix(0.05,0,0,0.05,33.95,0)" xlink:href="#Y"/><use transform="matrix(0.05,0,0,0.05,43.95,0)" xlink:href="#T"/></g><g id="B"><use transform="matrix(0.05,0,0,0.05,0,0)" xlink:href="#O"/><use transform="matrix(0.05,0,0,0.05,10,0)" xlink:href="#ad"/><use transform="matrix(0.05,0,0,0.05,19,0)" xlink:href="#S"/><use transform="matrix(0.05,0,0,0.05,29,0)" xlink:href="#ag"/></g></defs></g></svg>