<svg id="Layer_3" data-name="Layer 3" xmlns="http://www.w3.org/2000/svg" viewBox="0 0 98.67 98.64"><defs><style>.cls-1{fill:#fff;}.cls-2,.cls-3{fill:none;stroke:#fff;stroke-linecap:round;stroke-miterlimit:10;}.cls-2{stroke-width:3px;}.cls-3{stroke-width:5px;}</style></defs><title>email-negative</title><path class="cls-1" d="M465.89,367.67a4,4,0,0,1,4,4V456.3a4,4,0,0,1-4,4H381.21a4,4,0,0,1-4-4V371.67a4,4,0,0,1,4-4h84.68m0-3H381.21a7,7,0,0,0-7,7V456.3a7,7,0,0,0,7,7h84.68a7,7,0,0,0,7-7V371.67a7,7,0,0,0-7-7Z" transform="translate(-374.21 -364.67)"/><polyline class="cls-2" points="95.54 33.08 49.16 74.28 2.79 33.08"/><line class="cls-2" x1="35.79" y1="64.03" x2="5.37" y2="94.61"/><path class="cls-3" d="M423.83,388.75" transform="translate(-374.21 -364.67)"/><line class="cls-2" x1="93.87" y1="94.61" x2="63.01" y2="63.58"/><line class="cls-2" x1="2.74" y1="31.67" x2="96.49" y2="31.67"/><line class="cls-2" x1="22.29" y1="17.32" x2="76.38" y2="17.32"/><line class="cls-2" x1="22.29" y1="23.32" x2="76.38" y2="23.32"/></svg>