<svg id="Layer_1" data-name="Layer 1" xmlns="http://www.w3.org/2000/svg" viewBox="0 0 98.66 98.38"><defs><style>.cls-1{fill:#fff;}</style></defs><title>index</title><path class="cls-1" d="M400.66,200.83a16,16,0,0,1,16,16v46.38a16,16,0,0,1-16,16H354a16,16,0,0,1-16-16V216.83a16,16,0,0,1,16-16h46.67m0-10H354a26.08,26.08,0,0,0-26,26v46.38a26.08,26.08,0,0,0,26,26h46.67a26.08,26.08,0,0,0,26-26V216.83a26.08,26.08,0,0,0-26-26Z" transform="translate(-327.99 -190.83)"/><path class="cls-1" d="M377.82,224.85a15.25,15.25,0,1,1-15.25,15.25,15.26,15.26,0,0,1,15.25-15.25m0-11a26.25,26.25,0,1,0,26.24,26.25,26.25,26.25,0,0,0-26.24-26.25Z" transform="translate(-327.99 -190.83)"/><circle class="cls-1" cx="75.77" cy="23.42" r="6.26"/></svg>