<svg id="Layer_1" data-name="Layer 1" xmlns="http://www.w3.org/2000/svg" viewBox="0 0 98.66 98.38"><defs><style>.cls-1{fill:#fff;}.cls-2{fill:none;stroke:#fff;stroke-miterlimit:10;stroke-width:3px;}</style></defs><title>instagram-negative</title><path class="cls-1" d="M400.66,193.83a23,23,0,0,1,23,23v46.38a23,23,0,0,1-23,23H354a23,23,0,0,1-23-23V216.83a23,23,0,0,1,23-23h46.67m0-3H354a26.08,26.08,0,0,0-26,26v46.38a26.08,26.08,0,0,0,26,26h46.67a26.08,26.08,0,0,0,26-26V216.83a26.08,26.08,0,0,0-26-26Z" transform="translate(-327.99 -190.83)"/><path class="cls-1" d="M377.82,216.85a23.25,23.25,0,1,1-23.25,23.25,23.27,23.27,0,0,1,23.25-23.25m0-3a26.25,26.25,0,1,0,26.24,26.25,26.25,26.25,0,0,0-26.24-26.25Z" transform="translate(-327.99 -190.83)"/><circle class="cls-2" cx="75.77" cy="23.42" r="6.26"/></svg>