<svg id="Layer_2" data-name="Layer 2" xmlns="http://www.w3.org/2000/svg" viewBox="0 0 103.25 98.79"><defs><style>.cls-1{fill:none;stroke:#fff;stroke-miterlimit:10;stroke-width:3px;}</style></defs><title>linkedin-negative</title><path id="LinkedIn" class="cls-1" d="M233.94,430.09v37.06H212.45V432.57c0-8.68-3.11-14.61-10.88-14.61-5.94,0-9.48,4-11,7.86a14.62,14.62,0,0,0-.71,5.24v36.09h-21.5s.29-58.56,0-64.63h21.5v9.16l-.15.21h.15v-.21c2.85-4.4,7.95-10.68,19.36-10.68C223.34,401,233.94,410.24,233.94,430.09Zm-88.09-58.73c-7.35,0-12.16,4.82-12.16,11.16s4.67,11.18,11.87,11.18h.15c7.49,0,12.16-5,12.16-11.18C157.72,376.18,153.2,371.36,145.85,371.36ZM135,467.15h21.49V402.52H135Z" transform="translate(-132.19 -369.86)"/></svg>