<svg id="Layer_1" data-name="Layer 1" xmlns="http://www.w3.org/2000/svg" viewBox="0 0 166.66 17.79"><defs><style>.cls-1{fill:#231f20;}.cls-2{fill:none;stroke:#231f20;stroke-linecap:square;stroke-miterlimit:10;}</style></defs><title>logo</title><path class="cls-1" d="M0,.37H1.22v16.8H0Z"/><path class="cls-1" d="M20.76.37v16.8h-1L8.3,2.58V17.17H7.08V.37h1L19.54,15V.37Z"/><path class="cls-1" d="M38.21,16.07v1.1H26.62V.37H37.85V1.48h-10V8.1h9V9.18H27.84v6.89Z"/><polyline class="cls-2" points="50.24 0.71 42.99 8.71 43.03 8.71 51.64 8.71 51.24 9.08 43.99 17.08"/><path class="cls-1" d="M64.65,16.31a8.16,8.16,0,0,1-3.12-3,8.48,8.48,0,0,1-1.14-4.37,8.51,8.51,0,0,1,1.14-4.37,8.14,8.14,0,0,1,3.12-3A9,9,0,0,1,69.1.37,9.34,9.34,0,0,1,72.46,1,6.85,6.85,0,0,1,75.08,2.7l-.77.79a7,7,0,0,0-5.16-2,7.76,7.76,0,0,0-3.84,1A7,7,0,0,0,62.6,5.11a7.35,7.35,0,0,0-1,3.78,7.32,7.32,0,0,0,1,3.78,7.14,7.14,0,0,0,2.71,2.66,7.76,7.76,0,0,0,3.84,1,7.06,7.06,0,0,0,5.16-2l.77.79a7,7,0,0,1-2.63,1.75,9.19,9.19,0,0,1-3.35.6A9.06,9.06,0,0,1,64.65,16.31Z"/><path class="cls-1" d="M89.12,12.56H79.38l-2.14,4.73H75.92L83.65.49h1.22l7.73,16.8H91.28Zm-.46-1L84.25,1.84l-4.39,9.69Z"/><path class="cls-1" d="M111.54,17.29l0-14.37-7,12.14h-.6L96.85,3V17.29h-1.2V.49h1l7.51,13,7.51-13h1l0,16.8Z"/><path class="cls-1" d="M129,12.56h-9.74l-2.14,4.73h-1.32L123.51.49h1.22l7.73,16.8h-1.32Zm-.45-1-4.42-9.69-4.39,9.69Z"/><path class="cls-1" d="M147.17,17.29l-4-5.61a12.42,12.42,0,0,1-1.64.12h-4.8v5.49h-1.22V.49h6a7.52,7.52,0,0,1,5,1.5,5.13,5.13,0,0,1,1.8,4.17,5.37,5.37,0,0,1-1,3.34,5.38,5.38,0,0,1-2.91,1.91l4.2,5.88Zm-5.64-6.57a6.26,6.26,0,0,0,4.11-1.19,4.17,4.17,0,0,0,1.41-3.37,4.15,4.15,0,0,0-1.41-3.37,6.2,6.2,0,0,0-4.11-1.19h-4.8v9.12Z"/><path class="cls-1" d="M163.18,12.56h-9.74l-2.14,4.73H150L157.71.49h1.22l7.73,16.8h-1.32Zm-.45-1-4.42-9.69-4.39,9.69Z"/></svg>